<svg xmlns="http://www.w3.org/2000/svg" viewBox="0 0 720 400" role="img" aria-label="Sketch of the entity page">
  <rect width="720" height="400" fill="#F7F6F3"/>
  <rect x="0" y="0" width="720" height="28" fill="#FFFFFF" stroke="#E3E0DA"/>
  <rect x="12" y="8" width="64" height="12" rx="3" fill="#1F2124"/>
  <rect x="96" y="6" width="200" height="16" rx="6" fill="#F2F0EB"/>
  <rect x="0" y="28" width="128" height="372" fill="#FFFFFF" stroke="#E3E0DA"/>
  <rect x="10" y="40" width="14" height="14" rx="3" fill="#F0EDE8"/>
  <rect x="30" y="43" width="60" height="8" rx="2" fill="#3A3E44"/>
  <rect x="10" y="68" width="80" height="6" rx="2" fill="#9AA0A8"/>
  <rect x="18" y="84" width="72" height="6" rx="2" fill="#C9C4BB"/>
  <rect x="14" y="98" width="3" height="12" fill="#A8431C"/>
  <rect x="22" y="100" width="68" height="8" rx="2" fill="#1F2124"/>
  <rect x="18" y="118" width="72" height="6" rx="2" fill="#C9C4BB"/>
  <rect x="10" y="136" width="80" height="6" rx="2" fill="#9AA0A8"/>
  <rect x="10" y="152" width="80" height="6" rx="2" fill="#9AA0A8"/>
  <rect x="148" y="44" width="120" height="6" rx="2" fill="#9AA0A8"/>
  <rect x="148" y="60" width="220" height="18" rx="3" fill="#1F2124"/>
  <rect x="148" y="86" width="40" height="10" rx="3" fill="#F0EDE8"/>
  <rect x="196" y="88" width="110" height="6" rx="2" fill="#9AA0A8"/>
  <rect x="148" y="110" width="360" height="6" rx="2" fill="#C9C4BB"/>
  <rect x="148" y="124" width="340" height="6" rx="2" fill="#C9C4BB"/>
  <rect x="148" y="138" width="300" height="6" rx="2" fill="#C9C4BB"/>
  <rect x="148" y="162" width="120" height="10" rx="2" fill="#3A3E44"/>
  <rect x="148" y="184" width="360" height="96" rx="8" fill="#FFFFFF" stroke="#E3E0DA"/>
  <rect x="149" y="185" width="358" height="24" fill="#FAF9F7"/>
  <rect x="160" y="194" width="60" height="6" rx="2" fill="#9AA0A8"/>
  <rect x="300" y="194" width="60" height="6" rx="2" fill="#9AA0A8"/>
  <rect x="400" y="194" width="80" height="6" rx="2" fill="#9AA0A8"/>
  <rect x="160" y="222" width="90" height="6" rx="2" fill="#A8431C"/>
  <rect x="300" y="222" width="50" height="6" rx="2" fill="#C9C4BB"/>
  <rect x="400" y="222" width="90" height="6" rx="2" fill="#C9C4BB"/>
  <rect x="160" y="250" width="70" height="6" rx="2" fill="#A8431C"/>
  <rect x="300" y="250" width="50" height="6" rx="2" fill="#C9C4BB"/>
  <rect x="400" y="250" width="70" height="6" rx="2" fill="#C9C4BB"/>
  <rect x="148" y="300" width="360" height="72" rx="8" fill="#FFFFFF" stroke="#C9C4BB" stroke-dasharray="4 3"/>
  <rect x="548" y="28" width="172" height="372" fill="#FFFFFF" stroke="#E3E0DA"/>
  <rect x="560" y="44" width="60" height="6" rx="2" fill="#9AA0A8"/>
  <rect x="560" y="60" width="148" height="6" rx="2" fill="#C9C4BB"/>
  <rect x="560" y="74" width="148" height="6" rx="2" fill="#C9C4BB"/>
  <rect x="560" y="88" width="148" height="6" rx="2" fill="#C9C4BB"/>
  <rect x="560" y="118" width="60" height="6" rx="2" fill="#9AA0A8"/>
  <rect x="560" y="134" width="2" height="12" fill="#A8431C"/>
  <rect x="568" y="137" width="80" height="6" rx="2" fill="#3A3E44"/>
  <rect x="560" y="150" width="2" height="12" fill="#E3E0DA"/>
  <rect x="568" y="153" width="90" height="6" rx="2" fill="#C9C4BB"/>
  <rect x="560" y="184" width="70" height="6" rx="2" fill="#9AA0A8"/>
  <rect x="560" y="200" width="100" height="8" rx="2" fill="#1F2124"/>
  <rect x="560" y="214" width="140" height="6" rx="2" fill="#C9C4BB"/>
  <rect x="560" y="234" width="90" height="8" rx="2" fill="#1F2124"/>
  <rect x="560" y="248" width="140" height="6" rx="2" fill="#C9C4BB"/>
  <rect x="560" y="268" width="110" height="8" rx="2" fill="#1F2124"/>
  <rect x="560" y="282" width="140" height="6" rx="2" fill="#C9C4BB"/>
  <rect x="548" y="360" width="172" height="40" fill="#FFFFFF" stroke="#E3E0DA"/>
  <circle cx="568" cy="380" r="4" fill="#A8431C"/>
  <rect x="580" y="377" width="100" height="6" rx="2" fill="#3A3E44"/>
</svg>
